<svg xmlns="http://www.w3.org/2000/svg" xmlns:xlink="http://www.w3.org/1999/xlink" width="500" zoomAndPan="magnify" viewBox="0 0 375 374.999991" height="500" preserveAspectRatio="xMidYMid meet" version="1.0"><defs><clipPath id="de6c8a9fed"><path d="M 25.148438 127 L 181 127 L 181 296.570312 L 25.148438 296.570312 Z M 25.148438 127 " clip-rule="nonzero"/></clipPath><clipPath id="c93385d56b"><path d="M 64 78.320312 L 141 78.320312 L 141 128 L 64 128 Z M 64 78.320312 " clip-rule="nonzero"/></clipPath><clipPath id="8bcc932edb"><path d="M 194 127 L 349.898438 127 L 349.898438 296.570312 L 194 296.570312 Z M 194 127 " clip-rule="nonzero"/></clipPath><clipPath id="53c45a6cae"><path d="M 233 78.320312 L 311 78.320312 L 311 128 L 233 128 Z M 233 78.320312 " clip-rule="nonzero"/></clipPath></defs><g clip-path="url(#de6c8a9fed)"><path fill="#3b82f6" d="M 114.324219 186.085938 C 117.664062 185.167969 121.121094 187.113281 122.050781 190.449219 C 129.527344 217.398438 152.953125 236.859375 180.367188 239.734375 L 180.367188 146.632812 C 180.367188 136.058594 171.800781 127.480469 161.226562 127.480469 L 44.265625 127.480469 C 33.6875 127.480469 25.109375 136.058594 25.109375 146.632812 L 25.109375 277.414062 C 25.109375 287.992188 33.6875 296.558594 44.265625 296.558594 L 161.226562 296.558594 C 171.800781 296.558594 180.367188 287.992188 180.367188 277.414062 L 180.367188 252.34375 C 147.324219 249.414062 118.9375 226.152344 109.960938 193.800781 C 109.042969 190.464844 110.984375 187.019531 114.324219 186.085938 Z M 151.421875 178.414062 C 156.128906 178.414062 159.949219 182.269531 159.949219 187.03125 C 159.949219 191.78125 156.128906 195.652344 151.421875 195.652344 C 146.710938 195.652344 142.882812 191.78125 142.882812 187.03125 C 142.882812 182.269531 146.710938 178.414062 151.421875 178.414062 Z M 151.421875 178.414062 " fill-opacity="1" fill-rule="nonzero"/></g><g clip-path="url(#c93385d56b)"><path fill="#22c55e" d="M 140.925781 127.480469 L 128.398438 127.480469 L 128.398438 116.613281 C 128.398438 102.472656 116.890625 90.96875 102.75 90.96875 C 88.613281 90.96875 77.105469 102.472656 77.105469 116.613281 L 77.105469 127.480469 L 64.574219 127.480469 L 64.574219 116.613281 C 64.574219 95.558594 81.707031 78.4375 102.75 78.4375 C 123.792969 78.4375 140.941406 95.570312 140.941406 116.613281 L 140.941406 127.480469 Z M 140.925781 127.480469 " fill-opacity="1" fill-rule="nonzero"/></g><g clip-path="url(#8bcc932edb)"><path fill="#7c3aed" d="M 330.59375 127.480469 L 213.632812 127.480469 C 203.058594 127.480469 194.492188 136.058594 194.492188 146.632812 L 194.492188 239.746094 C 221.90625 236.871094 245.332031 217.398438 252.832031 190.449219 C 253.75 187.113281 257.195312 185.15625 260.535156 186.085938 C 263.875 187.019531 265.828125 190.464844 264.910156 193.800781 C 255.917969 226.152344 227.53125 249.429688 194.492188 252.34375 L 194.492188 277.414062 C 194.492188 287.992188 203.058594 296.558594 213.632812 296.558594 L 330.59375 296.558594 C 341.167969 296.558594 349.746094 287.992188 349.746094 277.414062 L 349.746094 146.632812 C 349.746094 136.058594 341.167969 127.480469 330.59375 127.480469 Z M 223.449219 195.652344 C 218.726562 195.652344 214.910156 191.78125 214.910156 187.03125 C 214.910156 182.269531 218.726562 178.414062 223.449219 178.414062 C 228.160156 178.414062 231.988281 182.269531 231.988281 187.03125 C 231.988281 191.78125 228.160156 195.652344 223.449219 195.652344 Z M 223.449219 195.652344 " fill-opacity="1" fill-rule="nonzero"/></g><g clip-path="url(#53c45a6cae)"><path fill="#22c55e" d="M 310.308594 127.480469 L 297.777344 127.480469 L 297.777344 116.613281 C 297.777344 102.472656 286.273438 90.96875 272.132812 90.96875 C 257.992188 90.96875 246.488281 102.472656 246.488281 116.613281 L 246.488281 127.480469 L 233.957031 127.480469 L 233.957031 116.613281 C 233.957031 95.558594 251.089844 78.4375 272.132812 78.4375 C 293.191406 78.4375 310.320312 95.570312 310.320312 116.613281 L 310.320312 127.480469 Z M 310.308594 127.480469 " fill-opacity="1" fill-rule="nonzero"/></g></svg>